<svg xmlns="http://www.w3.org/2000/svg" viewBox="0 0 382.26 403"><defs><style>.\39 352a356-e84f-4bf2-a7c3-3dd934a277f6{fill:#001529;stroke-width:2px;}.\34 b613d0d-d53a-44b9-97ac-0336f31892a4,.\39 352a356-e84f-4bf2-a7c3-3dd934a277f6{stroke:#fff;stroke-miterlimit:10;}.\30 d8f4a99-ffca-4714-8a56-9dfd1b22476c{font-size:76.91px;font-family:CenturyGothic, Century Gothic;}.d5b2a745-242e-4e88-aca1-796edf618193{fill:#fff;}.\34 b613d0d-d53a-44b9-97ac-0336f31892a4{fill:none;}</style></defs><title>上logo下文字</title><g id="2a531e42-6f5c-4eb2-920e-3cbaa06f43c2" data-name="图层 1"><rect class="9352a356-e84f-4bf2-a7c3-3dd934a277f6" x="39.26" y="1" width="300" height="300" rx="12" ry="12"/><text class="0d8f4a99-ffca-4714-8a56-9dfd1b22476c" transform="translate(0 386.06) scale(1.12 1)">A+Quant</text></g><g id="6e16d28f-6875-40cf-a97c-7b3c771724c2" data-name="图层 2"><polygon class="d5b2a745-242e-4e88-aca1-796edf618193" points="113.31 163 134.51 221.8 78.01 221.2 101.51 149.8 119.06 149.8 104.33 136.9 127.8 71.5 149.18 71.5 210.26 221.8 153.86 221.21 153.86 221.02 130.14 163 113.31 163"/><polyline class="4b613d0d-d53a-44b9-97ac-0336f31892a4" points="77.82 221.8 78.01 221.2 101.51 149.8"/><polyline class="4b613d0d-d53a-44b9-97ac-0336f31892a4" points="104.22 137.2 104.33 136.9 127.8 71.5 127.91 71.2"/><polyline class="4b613d0d-d53a-44b9-97ac-0336f31892a4" points="77.66 221.2 78.01 221.2 134.51 221.8 134.66 221.8"/><polyline class="4b613d0d-d53a-44b9-97ac-0336f31892a4" points="101.06 149.8 101.51 149.8 119.06 149.8"/><line class="4b613d0d-d53a-44b9-97ac-0336f31892a4" x1="104.33" y1="136.9" x2="119.06" y2="149.8"/><polyline class="4b613d0d-d53a-44b9-97ac-0336f31892a4" points="134.66 222.22 134.51 221.8 113.31 163 113.12 162.48"/><polyline class="4b613d0d-d53a-44b9-97ac-0336f31892a4" points="112.76 163 113.31 163 130.14 163 130.16 163"/><polyline class="4b613d0d-d53a-44b9-97ac-0336f31892a4" points="153.86 221.02 130.14 163 129.92 162.48"/><polyline class="4b613d0d-d53a-44b9-97ac-0336f31892a4" points="153.26 221.2 153.86 221.21 210.26 221.8"/><polyline class="4b613d0d-d53a-44b9-97ac-0336f31892a4" points="210.26 221.8 149.18 71.5 149.06 71.2"/><polyline class="4b613d0d-d53a-44b9-97ac-0336f31892a4" points="127.76 71.5 127.8 71.5 149.18 71.5 149.36 71.5"/><path class="d5b2a745-242e-4e88-aca1-796edf618193" d="M327.93,82c44.35,9.43,73.58,49.54,67,90.74l-46.22,58.13a85.6,85.6,0,0,1-13.17,4.53L275.8,86.45A88.88,88.88,0,0,1,327.93,82Z" transform="translate(-115.74 -15)"/><path class="d5b2a745-242e-4e88-aca1-796edf618193" d="M348.71,230.86l46.22-58.13c-.21,1.32-.46,2.64-.73,4C388.83,201.55,371.41,221,348.71,230.86Z" transform="translate(-115.74 -15)"/><path class="4b613d0d-d53a-44b9-97ac-0336f31892a4" d="M348.71,230.86c22.7-9.9,40.12-29.31,45.49-54.17.27-1.32.52-2.64.73-4" transform="translate(-115.74 -15)"/><path class="4b613d0d-d53a-44b9-97ac-0336f31892a4" d="M394.93,172.73c6.58-41.2-22.65-81.31-67-90.74a88.88,88.88,0,0,0-52.13,4.46l59.74,148.94a85.6,85.6,0,0,0,13.17-4.53" transform="translate(-115.74 -15)"/><path class="d5b2a745-242e-4e88-aca1-796edf618193" d="M425.43,236.8,359,235.61h0a78.05,78.05,0,0,0,42.62-56.06l.33-.14Z" transform="translate(-115.74 -15)"/><polyline class="4b613d0d-d53a-44b9-97ac-0336f31892a4" points="309.86 222.22 309.69 221.8 286.21 164.4 285.92 163.68"/><polyline class="4b613d0d-d53a-44b9-97ac-0336f31892a4" points="242.66 220.6 243.26 220.61 309.69 221.8 309.86 221.8"/><path class="4b613d0d-d53a-44b9-97ac-0336f31892a4" d="M359,235.6a78.05,78.05,0,0,0,42.62-56.06" transform="translate(-115.74 -15)"/></g></svg>