<svg xmlns="http://www.w3.org/2000/svg" viewBox="0 0 502 502"><defs><style>.d10d6539-5b1f-4d29-967b-51be95ea079b{fill:#001529;stroke-width:2px;}.\36 93f4ad4-8fa8-47b1-8e88-5a3b66df92d5,.d10d6539-5b1f-4d29-967b-51be95ea079b{stroke:#fff;stroke-miterlimit:10;}.\39 2bff541-b791-478c-bfcb-d908a25df039{fill:#fff;}.\36 93f4ad4-8fa8-47b1-8e88-5a3b66df92d5{fill:none;}</style></defs><title>纯LOGO</title><g id="08632470-09dc-4cbe-b3a6-ca5fb9318339" data-name="图层 1"><rect class="d10d6539-5b1f-4d29-967b-51be95ea079b" x="1" y="1" width="500" height="500" rx="12" ry="12"/></g><g id="1b4dfdda-2d37-4b95-817e-bbe909ef3a9d" data-name="图层 2"><polygon class="92bff541-b791-478c-bfcb-d908a25df039" points="124.42 271 159.74 369 65.58 368 104.74 249 134 249 109.44 227.5 148.56 118.5 184.2 118.5 286 369 192 368.02 192 367.7 152.46 271 124.42 271"/><polyline class="693f4ad4-8fa8-47b1-8e88-5a3b66df92d5" points="65.26 369 65.58 368 104.74 249"/><polyline class="693f4ad4-8fa8-47b1-8e88-5a3b66df92d5" points="109.26 228 109.44 227.5 148.56 118.5 148.74 118"/><polyline class="693f4ad4-8fa8-47b1-8e88-5a3b66df92d5" points="65 368 65.58 368 159.74 369 160 369"/><polyline class="693f4ad4-8fa8-47b1-8e88-5a3b66df92d5" points="104 249 104.74 249 134 249"/><line class="693f4ad4-8fa8-47b1-8e88-5a3b66df92d5" x1="109.44" y1="227.5" x2="134" y2="249"/><polyline class="693f4ad4-8fa8-47b1-8e88-5a3b66df92d5" points="160 369.7 159.74 369 124.42 271 124.1 270.14"/><polyline class="693f4ad4-8fa8-47b1-8e88-5a3b66df92d5" points="123.5 271 124.42 271 152.46 271 152.5 271"/><polyline class="693f4ad4-8fa8-47b1-8e88-5a3b66df92d5" points="192 367.7 152.46 271 152.1 270.14"/><polyline class="693f4ad4-8fa8-47b1-8e88-5a3b66df92d5" points="191 368 192 368.02 286 369"/><polyline class="693f4ad4-8fa8-47b1-8e88-5a3b66df92d5" points="286 369 184.2 118.5 184 118"/><polyline class="693f4ad4-8fa8-47b1-8e88-5a3b66df92d5" points="148.5 118.5 148.56 118.5 184.2 118.5 184.5 118.5"/><path class="92bff541-b791-478c-bfcb-d908a25df039" d="M290,110.73C363.88,126.45,412.6,193.29,401.64,262l-77,96.89a143.24,143.24,0,0,1-22,7.54L203.09,118.17A148.13,148.13,0,0,1,290,110.73Z" transform="translate(-0.75 0.25)"/><path class="92bff541-b791-478c-bfcb-d908a25df039" d="M324.61,358.86l77-96.89q-.54,3.3-1.23,6.59C391.46,310,362.43,342.35,324.61,358.86Z" transform="translate(-0.75 0.25)"/><path class="693f4ad4-8fa8-47b1-8e88-5a3b66df92d5" d="M324.61,358.86c37.82-16.51,66.85-48.86,75.8-90.3q.69-3.29,1.23-6.59" transform="translate(-0.75 0.25)"/><path class="693f4ad4-8fa8-47b1-8e88-5a3b66df92d5" d="M401.64,262c11-68.68-37.76-135.52-111.68-151.24a148.13,148.13,0,0,0-86.87,7.44L302.65,366.4a143.24,143.24,0,0,0,22-7.54" transform="translate(-0.75 0.25)"/><path class="92bff541-b791-478c-bfcb-d908a25df039" d="M452.47,368.75l-110.72-2v0a130.07,130.07,0,0,0,71-93.44l.54-.22Z" transform="translate(-0.75 0.25)"/><polyline class="693f4ad4-8fa8-47b1-8e88-5a3b66df92d5" points="452 369.7 451.72 369 412.58 273.34 412.1 272.14"/><polyline class="693f4ad4-8fa8-47b1-8e88-5a3b66df92d5" points="340 367 341 367.02 451.72 369 452 369"/><path class="693f4ad4-8fa8-47b1-8e88-5a3b66df92d5" d="M341.75,366.75a130.07,130.07,0,0,0,71-93.44" transform="translate(-0.75 0.25)"/></g></svg>