<svg xmlns="http://www.w3.org/2000/svg" viewBox="0 0 881.5 205"><defs><style>.\32 0b0fc39-c579-4d4e-a30e-ccb2ad1940a5{fill:#001529;stroke-width:5px;}.\32 0b0fc39-c579-4d4e-a30e-ccb2ad1940a5,.c8ce7a92-217a-4bc9-ac4d-d970303a53a4{stroke:#fff;stroke-miterlimit:10;}.\37 073b9d5-16f4-4a28-9549-9441171f58eb{font-size:133.43px;font-family:CenturyGothic, Century Gothic;}.\37 073b9d5-16f4-4a28-9549-9441171f58eb,.eb4eaf7b-70ab-45ac-8e08-2ce454a0d391{fill:#fff;}.c8ce7a92-217a-4bc9-ac4d-d970303a53a4{fill:none;}</style></defs><title>A+Quant_LOGO横排</title><g id="eaf34c2c-150f-49e6-8d26-1a7917732a4f" data-name="图层 1"><rect class="20b0fc39-c579-4d4e-a30e-ccb2ad1940a5" x="2.5" y="2.5" width="200" height="200" rx="12" ry="12"/><text class="7073b9d5-16f4-4a28-9549-9441171f58eb" transform="translate(258.5 153.12) scale(1.05 1)">A+Quant</text></g><g id="8dd79914-92ea-4769-ba95-c8b7140c9f08" data-name="图层 2"><polygon class="eb4eaf7b-70ab-45ac-8e08-2ce454a0d391" points="51.87 110.5 66 149.7 28.33 149.3 44 101.7 55.7 101.7 45.88 93.1 61.52 49.5 75.78 49.5 116.5 149.7 78.9 149.31 78.9 149.18 63.08 110.5 51.87 110.5"/><polyline class="c8ce7a92-217a-4bc9-ac4d-d970303a53a4" points="28.2 149.7 28.33 149.3 44 101.7"/><polyline class="c8ce7a92-217a-4bc9-ac4d-d970303a53a4" points="45.8 93.3 45.88 93.1 61.52 49.5 61.6 49.3"/><polyline class="c8ce7a92-217a-4bc9-ac4d-d970303a53a4" points="28.1 149.3 28.33 149.3 66 149.7 66.1 149.7"/><polyline class="c8ce7a92-217a-4bc9-ac4d-d970303a53a4" points="43.7 101.7 44 101.7 55.7 101.7"/><line class="c8ce7a92-217a-4bc9-ac4d-d970303a53a4" x1="45.88" y1="93.1" x2="55.7" y2="101.7"/><polyline class="c8ce7a92-217a-4bc9-ac4d-d970303a53a4" points="66.1 149.98 66 149.7 51.87 110.5 51.74 110.16"/><polyline class="c8ce7a92-217a-4bc9-ac4d-d970303a53a4" points="51.5 110.5 51.87 110.5 63.08 110.5 63.1 110.5"/><polyline class="c8ce7a92-217a-4bc9-ac4d-d970303a53a4" points="78.9 149.18 63.08 110.5 62.94 110.16"/><polyline class="c8ce7a92-217a-4bc9-ac4d-d970303a53a4" points="78.5 149.3 78.9 149.31 116.5 149.7"/><polyline class="c8ce7a92-217a-4bc9-ac4d-d970303a53a4" points="116.5 149.7 75.78 49.5 75.7 49.3"/><polyline class="c8ce7a92-217a-4bc9-ac4d-d970303a53a4" points="61.5 49.5 61.52 49.5 75.78 49.5 75.9 49.5"/><path class="eb4eaf7b-70ab-45ac-8e08-2ce454a0d391" d="M175.28,110c29.57,6.29,49.06,33,44.68,60.5l-30.82,38.75a55.79,55.79,0,0,1-8.78,3L140.54,113A59.24,59.24,0,0,1,175.28,110Z" transform="translate(-57.5 -63.5)"/><path class="eb4eaf7b-70ab-45ac-8e08-2ce454a0d391" d="M189.14,209.24,220,170.49c-.15.88-.31,1.76-.5,2.64C215.89,189.7,204.27,202.64,189.14,209.24Z" transform="translate(-57.5 -63.5)"/><path class="c8ce7a92-217a-4bc9-ac4d-d970303a53a4" d="M189.14,209.24c15.13-6.6,26.75-19.54,30.32-36.11.19-.88.35-1.76.5-2.64" transform="translate(-57.5 -63.5)"/><line class="c8ce7a92-217a-4bc9-ac4d-d970303a53a4" x1="162.46" y1="106.99" x2="131.64" y2="145.74"/><path class="c8ce7a92-217a-4bc9-ac4d-d970303a53a4" d="M220,170.49c4.38-27.47-15.11-54.21-44.68-60.5a59.24,59.24,0,0,0-34.74,3l39.82,99.29a55.79,55.79,0,0,0,8.78-3" transform="translate(-57.5 -63.5)"/><path class="eb4eaf7b-70ab-45ac-8e08-2ce454a0d391" d="M240.29,213.2,196,212.41h0A52,52,0,0,0,224.42,175l.21-.08Z" transform="translate(-57.5 -63.5)"/><polyline class="c8ce7a92-217a-4bc9-ac4d-d970303a53a4" points="182.9 149.98 182.79 149.7 167.13 111.44 166.94 110.96"/><polyline class="c8ce7a92-217a-4bc9-ac4d-d970303a53a4" points="138.1 148.9 138.5 148.91 182.79 149.7 182.9 149.7"/><path class="c8ce7a92-217a-4bc9-ac4d-d970303a53a4" d="M196,212.4A52,52,0,0,0,224.42,175" transform="translate(-57.5 -63.5)"/></g></svg>