<svg id="Layer_1" data-name="Layer 1" xmlns="http://www.w3.org/2000/svg" xmlns:xlink="http://www.w3.org/1999/xlink" viewBox="0 0 333.72 110"><defs><style>.cls-1{fill:url(#linear-gradient);}.cls-2{fill:url(#linear-gradient-2);}.cls-3{fill:url(#linear-gradient-3);}.cls-4{fill:url(#linear-gradient-4);}.cls-5{font-size:60px;fill:#fff;font-family:ArialMT, Arial;}.cls-6{letter-spacing:-0.11em;}</style><linearGradient id="linear-gradient" x1="-278.82" y1="302.7" x2="-278.99" y2="302.01" gradientTransform="matrix(47.2, 0, 0, -47.16, 13197.55, 14286.64)" gradientUnits="userSpaceOnUse"><stop offset="0" stop-color="#fa8e7d"/><stop offset="0.51" stop-color="#f74a5c"/><stop offset="1" stop-color="#f51d2c"/></linearGradient><linearGradient id="linear-gradient-2" x1="62.49" y1="78.75" x2="62.51" y2="78.74" gradientUnits="userSpaceOnUse"><stop offset="0.01" stop-color="#4285eb"/><stop offset="0.45" stop-color="#3d96f0"/><stop offset="1" stop-color="#2ec7ff"/></linearGradient><linearGradient id="linear-gradient-3" x1="-6.18" y1="84.73" x2="70.36" y2="8.19" xlink:href="#linear-gradient-2"/><linearGradient id="linear-gradient-4" x1="53.3" y1="70.56" x2="109.55" y2="70.56" gradientTransform="matrix(1, -0.01, 0.01, 1.01, -0.43, -0.58)" gradientUnits="userSpaceOnUse"><stop offset="0" stop-color="#fa816e"/><stop offset="0.41" stop-color="#f74a5c"/><stop offset="1" stop-color="#f51d2c"/></linearGradient></defs><title>Tagx00图标+字</title><circle id="Combined-Shape" class="cls-1" cx="32.65" cy="29.25" r="10.82"/><polygon class="cls-2" points="62.51 78.75 62.51 78.74 62.48 78.74 62.51 78.75"/><path class="cls-3" d="M59.19-.5H6.29a6,6,0,0,0-6,6V77.64c0,.08,0,.15,0,.22s0,.26,0,.38a31.25,31.25,0,0,0,50.49,24.64h0a6,6,0,1,0-7.11-9.69h0a19.23,19.23,0,0,1-31.34-15v-.6c0-8.91,0-60.33,0-63.71a2.4,2.4,0,0,1,2.4-2.41H50.77a2.41,2.41,0,0,1,2.41,2.41v9.61a6,6,0,0,0,12,0v-18A6,6,0,0,0,59.19-.5Zm-46.89,12h0v2.32C12.3,12.3,12.3,11.73,12.3,11.52Z" transform="translate(-0.28 0.5)"/><path class="cls-4" d="M109.42,76.73a24.06,24.06,0,0,0-2.48-7.83,32.46,32.46,0,0,0-9-9.11c-.15-.12-.29-.25-.45-.36l-32.73-23a7.22,7.22,0,0,0-11.36,5.94l0,40.29a21.89,21.89,0,0,0,2.14,8.7A23,23,0,0,0,65,101.13,27.25,27.25,0,0,0,72.49,104a32.26,32.26,0,0,0,9.91.53,46.35,46.35,0,0,0,12.37-2.45h0a24.24,24.24,0,0,0,4.82-2.62A26.79,26.79,0,0,0,106.47,92,24.41,24.41,0,0,0,109.42,76.73ZM95.67,85.88a10.74,10.74,0,0,1-3.39,3.2,18.23,18.23,0,0,1-5,2.29,21.32,21.32,0,0,1-3.53.65,24.49,24.49,0,0,1-8.41,0,12.4,12.4,0,0,1-6.61-3,11.51,11.51,0,0,1-3.14-7.83l-.31-25.9a1.78,1.78,0,0,1,2.84-1.45l10.66,8.06c.5.33,1.07.71,1.72,1.17,2,1.42,2.52,1.94,5.42,4.2,1.78,1.38,2.61,2,3.69,2.82l2.29,1.73a1.59,1.59,0,0,1,.38.4c2.58,2.12,3.3,2.94,3.9,4a9,9,0,0,1,1.23,4.22A9.28,9.28,0,0,1,95.67,85.88Z" transform="translate(-0.28 0.5)"/><text class="cls-5" transform="translate(118.22 76.46)"><tspan class="cls-6">T</tspan><tspan x="30" y="0">ag x00</tspan></text></svg>
