<svg id="Layer_1" data-name="Layer 1" xmlns="http://www.w3.org/2000/svg" xmlns:xlink="http://www.w3.org/1999/xlink" viewBox="0 0 181.91 183"><defs><style>.cls-1{fill:url(#linear-gradient);}.cls-2{fill:url(#linear-gradient-2);}.cls-3{fill:url(#linear-gradient-3);}.cls-4{fill:url(#linear-gradient-4);}</style><linearGradient id="linear-gradient" x1="-185.31" y1="332.15" x2="-185.6" y2="331" gradientTransform="matrix(47.2, 0, 0, -47.16, 8808.79, 15682.82)" gradientUnits="userSpaceOnUse"><stop offset="0" stop-color="#fa8e7d"/><stop offset="0.51" stop-color="#f74a5c"/><stop offset="1" stop-color="#f51d2c"/></linearGradient><linearGradient id="linear-gradient-2" x1="103.96" y1="131.02" x2="103.99" y2="130.99" gradientUnits="userSpaceOnUse"><stop offset="0.01" stop-color="#4285eb"/><stop offset="0.45" stop-color="#3d96f0"/><stop offset="1" stop-color="#2ec7ff"/></linearGradient><linearGradient id="linear-gradient-3" x1="-10.75" y1="141.78" x2="116.58" y2="14.45" xlink:href="#linear-gradient-2"/><linearGradient id="linear-gradient-4" x1="88.09" y1="117.39" x2="181.68" y2="117.39" gradientTransform="matrix(1, -0.01, 0.01, 1.01, -0.62, -0.13)" gradientUnits="userSpaceOnUse"><stop offset="0" stop-color="#fa816e"/><stop offset="0.41" stop-color="#f74a5c"/><stop offset="1" stop-color="#f51d2c"/></linearGradient></defs><title>Tagx00</title><circle id="Combined-Shape" class="cls-1" cx="54.32" cy="48.67" r="18"/><polygon class="cls-2" points="104 131.01 104 131 103.95 131 104 131.01"/><path class="cls-3" d="M98,0H10A10,10,0,0,0,0,10V130c0,.12,0,.24,0,.37s0,.42,0,.63a52,52,0,0,0,84,41l0,0c5-3.66,5.71-10.78,2-15a10.33,10.33,0,0,0-13.84-1.12l0,0A32,32,0,0,1,20,131v-1c0-14.83,0-100.38,0-106a4,4,0,0,1,4-4H84a4,4,0,0,1,4,4V40a10,10,0,0,0,20,0V10A10,10,0,0,0,98,0ZM20,20h0v0Z" transform="translate(0 0)"/><path class="cls-4" d="M181.56,128.48a40.39,40.39,0,0,0-4.11-13,54,54,0,0,0-14.93-15.16c-.24-.2-.47-.41-.74-.6L107.33,61.42A12,12,0,0,0,88.44,71.3l-.08,67a36,36,0,0,0,3.56,14.47c4.67,9.62,12.43,14.29,15.81,16.27a45.2,45.2,0,0,0,12.39,4.84c6.49,1.51,11.58,1.18,16.49.89a77.59,77.59,0,0,0,20.58-4.07h0a40.77,40.77,0,0,0,8-4.37,44.55,44.55,0,0,0,11.44-12.5A40.62,40.62,0,0,0,181.56,128.48ZM158.69,143.7a17.73,17.73,0,0,1-5.64,5.33,30.52,30.52,0,0,1-8.28,3.81,35.27,35.27,0,0,1-5.86,1.07c-4.79.55-9,1-14,0-3.39-.73-7.5-1.62-11-5-4.77-4.69-5.19-11-5.24-13l-.5-43.1a3,3,0,0,1,4.72-2.41l17.73,13.41c.84.55,1.78,1.19,2.85,2,3.34,2.37,4.21,3.23,9,7,3,2.3,4.34,3.3,6.14,4.69l3.81,2.89a3,3,0,0,1,.63.65c4.3,3.54,5.48,4.9,6.49,6.74a15,15,0,0,1,2,7A15.37,15.37,0,0,1,158.69,143.7Z" transform="translate(0 0)"/></svg>
