<?xml version="1.0" encoding="utf-8"?>
<!-- Generator: Adobe Illustrator 22.1.0, SVG Export Plug-In . SVG Version: 6.00 Build 0)  -->
<svg version="1.1" id="图层_1" xmlns="http://www.w3.org/2000/svg"  x="0px" y="0px"
	 viewBox="0 0 236.2 264.4" style="enable-background:new 0 0 236.2 264.4;" xml:space="preserve">
<style type="text/css">
	.st0{fill:#464D9B;}
	.st1{font-family:'Helvetica';}
	.st2{font-size:72px;}
	.st3{font-size:21px;}
	.st4{fill:#C1C5DE;}
	.st5{fill:#B9B9D8;}
	.st6{fill:#7377B3;}
	.st7{fill:#727AB4;}
	.st8{fill:#FFFFFF;}
</style>
<title>tag_x00_logo1</title>
<text transform="matrix(1 0 0 1 0 210.92)" class="st0 st1 st2">tag x00</text>
<text transform="matrix(1 0 0 1 30.48 258.03)" class="st0 st1 st3">TAG THE WORLD</text>
<path class="st4" d="M199.8,104.1v-0.7l0,0V104.1z"/>
<path class="st5" d="M199.8,99.3v-0.7l0,0V99.3z"/>
<path class="st6" d="M199.8,99.3L199.8,99.3L199.8,99.3z"/>
<path class="st7" d="M199.8,103.4L199.8,103.4c-0.2-0.2-0.2-0.3,0-0.7V103.4z"/>
<path class="st0" d="M56.6,0h61.9c0.8,0.1,1.6,0,2.5,0.1c1.3,0.1,2.6,0.5,3.8,1.1c3.3,1.5,5.9,4.1,7.6,7.3c1,2.1,1.7,4.3,1.8,6.6
	c0,0.9,0,1.9,0,2.8v82.6c0,4-0.4,7.9-1.4,11.8c-0.7,2.9-1.8,5.7-3,8.4c-1.7,3.6-3.8,6.9-6.4,9.9c-2.6,3-5.5,5.7-8.7,8
	c-1.9,1.3-3.9,2.5-5.9,3.5c-2.7,1.3-5.5,2.4-8.4,3.2c-2.7,0.8-5.6,1.3-8.4,1.5c-2.2,0.2-4.5,0.2-6.7,0.1c-4-0.2-7.9-0.9-11.7-2.1
	c-2.9-0.9-5.7-2.1-8.4-3.5c-2.9-1.6-5.7-3.5-8.2-5.7c-8.3-7.2-13.7-17.1-15.4-27.9c-0.3-2.1-0.4-4.3-0.4-6.5c0-28,0-56.1,0-84.2
	c0-2,0.2-3.9,0.7-5.8c0.6-2.1,1.7-4,3-5.7c2-2.5,4.8-4.3,8-5.2c0.8-0.2,1.6-0.3,2.5-0.3C55.5,0,56.1,0,56.6,0z"/>
<path class="st8" d="M56.6,0c-0.1,0.1-0.3,0.1-0.4,0.1c-2,0-4,0.5-5.9,1.4c-4.4,2-7.6,5.9-8.7,10.6c-0.3,1.2-0.4,2.4-0.5,3.5
	c-0.2,2.3,0,4.6,0,7c0,25.7,0,51.5,0,77.2c0,1.5,0,3,0.1,4.5c0.2,3.6,0.9,7.2,2,10.6c5.4,16.3,19.3,28.4,36.2,31.3
	c3.4,0.6,6.9,0.8,10.4,0.6c11.2-0.5,21.9-5.1,30-12.9c6.4-6.1,10.9-13.9,12.9-22.5c0.7-3,1.1-6.1,1.1-9.2c0-1,0-1.9,0-2.9V19
	c0-0.8,0-1.6,0-2.3c0.3-7-3.9-13.3-10.5-15.7c-1.5-0.5-3-0.8-4.6-0.9c-0.1,0-0.3,0-0.4-0.1h84.8v97.7c0,0-0.1,0-0.1,0
	c-0.2-0.1-0.1-0.3-0.2-0.4c-0.3-4.1-1.1-8.1-2.4-12c-1.4-4.1-3.5-8-6-11.5c-1.4-1.9-2.9-3.7-4.6-5.4l-45.9-46
	c-0.2-0.1-0.3-0.5-0.5-0.4s0,0.4,0,0.7c0,26.2,0,52.5,0,78.7c0,3.3-0.3,6.5-0.9,9.8c-0.7,4-1.9,7.9-3.5,11.7
	c-1.6,3.6-3.6,7.1-5.9,10.3c-1,1.4-2.1,2.7-3.3,4c-0.4,0.4-0.3,0.6,0.1,0.9c8,5.9,17.8,8.9,27.7,8.7c4.1-0.1,8.3-0.8,12.2-1.9
	c3-0.9,5.9-2.1,8.7-3.5c2.9-1.6,5.7-3.5,8.2-5.6c0.9-0.8,1.8-1.6,2.7-2.4c3.7-3.7,6.8-8,9.1-12.8c1.9-3.9,3.2-8.1,4-12.4
	c0.3-1.5,0.4-3,0.5-4.5c0-0.2,0-0.3,0.1-0.4c0.1,0,0.1,0,0.2,0V156H32.8V0C40.7,0,48.7,0,56.6,0z"/>
<path class="st0" d="M203.1,103.2c-0.3,6-1.8,11.9-4.4,17.3c-5.5,11.5-15.5,20.3-27.6,24.3c-5.7,1.9-11.6,2.6-17.6,2.3
	c-8.8-0.5-17.2-3.6-24.2-8.9c-0.4-0.3-0.4-0.3,0-0.7c5.8-6.5,9.9-14.2,12.1-22.6c1.2-4.7,1.8-9.6,1.8-14.5c0-0.7,0-1.4,0-2.1V21.4
	c0.1,0,0.2,0.1,0.3,0.2c0.1,0.1,0.3,0.3,0.4,0.4L188.8,67c1.6,1.6,3.2,3.3,4.6,5c4.6,5.7,7.7,12.5,9,19.8c0.4,2,0.7,4,0.7,6
	c0,0.2,0,0.4,0,0.6c0,0.2,0,0.4,0,0.7v2.7c-0.1,0.2,0,0.4,0,0.7C203.2,102.7,203.2,102.9,203.1,103.2z"/>
<path class="st4" d="M203.1,103.2c0-0.3,0-0.5,0-0.8l0,0l0,0V103.2L203.1,103.2L203.1,103.2z"/>
<path class="st5" d="M203.1,98.4c0-0.2,0-0.4,0-0.6l0,0V98.4C203.1,98.4,203.1,98.4,203.1,98.4z"/>
<path class="st6" d="M203.1,98.4L203.1,98.4l0.1,0.6C203.1,98.8,203.1,98.6,203.1,98.4z"/>
<path class="st7" d="M203.2,102.4L203.2,102.4c-0.1-0.2-0.1-0.4,0-0.6V102.4z"/>
<path class="st8" d="M87,50c-7.9-0.2-14.2-6.8-14-14.7c0.2-7.9,6.8-14.2,14.7-14c7.9,0.2,14.2,6.8,14,14.7c0,0.1,0,0.1,0,0.2
	C101.4,44,94.9,50.2,87,50z"/>
</svg>
